<?xml version="1.0" standalone="no"?>
<!DOCTYPE svg PUBLIC "-//W3C//DTD SVG 20010904//EN"
 "http://www.w3.org/TR/2001/REC-SVG-20010904/DTD/svg10.dtd">
<svg version="1.0" xmlns="http://www.w3.org/2000/svg"
 width="512.000000pt" height="512.000000pt" viewBox="0 0 512.000000 512.000000"
 preserveAspectRatio="xMidYMid meet">
<metadata>
Created by potrace 1.14, written by Peter Selinger 2001-2017
</metadata>
<g transform="translate(0.000000,512.000000) scale(0.100000,-0.100000)"
fill="#000000" stroke="none">
<path d="M220 5103 c-100 -35 -170 -106 -204 -209 -15 -46 -16 -165 -14 -1395
l3 -1344 25 -50 c43 -87 141 -165 226 -179 16 -2 253 -5 527 -5 l497 -1 0
-214 0 -213 -101 1 c-81 1 -102 -2 -108 -14 -4 -8 -7 -55 -6 -105 l1 -90 427
-3 427 -2 0 107 0 108 -213 -1 -214 -1 1 214 0 213 107 0 106 0 -1 107 -1 107
-710 1 c-390 1 -717 5 -725 9 -8 4 -24 19 -35 34 -20 27 -20 44 -21 1337 -1
1415 -4 1340 50 1376 31 21 3687 23 3728 2 65 -32 61 35 62 -1036 l1 -972 106
-3 106 -3 -1 988 c-1 756 -5 998 -14 1030 -12 40 -68 124 -101 151 -9 7 -38
25 -66 40 l-50 27 -1885 2 c-1691 2 -1890 0 -1930 -14z"/>
<path d="M3049 4689 c-189 -28 -316 -221 -263 -399 8 -25 14 -48 14 -51 0 -9
-310 -319 -319 -319 -3 0 -27 7 -53 14 -51 16 -129 14 -185 -5 l-36 -11 -158
158 -159 159 16 50 c45 144 -27 304 -168 374 -55 28 -67 30 -146 28 -97 -3
-143 -21 -212 -83 -82 -74 -122 -223 -86 -324 l16 -45 -213 -213 -212 -212 76
-75 75 -76 210 211 210 211 68 -16 c68 -16 123 -14 182 7 32 11 32 11 190
-146 l158 -157 -13 -47 c-44 -174 35 -332 199 -396 42 -17 127 -22 179 -12 45
10 115 50 154 89 78 78 114 216 81 311 -8 21 -14 42 -14 46 0 9 310 320 319
320 3 0 26 -6 51 -14 195 -59 399 98 401 307 2 194 -170 344 -362 316z m-1390
-228 c56 -35 59 -128 4 -171 -58 -45 -155 -9 -165 62 -14 95 81 159 161 109z
m1507 -12 c47 -44 39 -130 -14 -161 -53 -31 -96 -27 -133 13 -46 49 -37 127
19 162 34 22 98 15 128 -14z m-747 -748 c53 -49 39 -135 -26 -166 -67 -32
-138 5 -150 78 -15 97 103 156 176 88z"/>
<path d="M429 3291 c-1 -20 -1 -172 0 -187 1 -7 38 -11 106 -11 l105 0 0 106
0 107 -105 1 c-91 1 -105 -1 -106 -16z"/>
<path d="M2882 3184 c-425 -75 -777 -382 -908 -794 -40 -126 -54 -231 -50
-380 6 -197 35 -314 123 -490 201 -402 614 -649 1063 -635 110 3 133 6 240 31
142 32 365 140 446 215 l22 20 111 -112 c122 -123 118 -109 54 -177 -39 -41
-47 -63 -39 -107 5 -27 73 -100 362 -389 371 -370 383 -380 444 -361 12 4 98
83 190 176 174 174 193 202 175 258 -3 12 -166 181 -362 376 -368 367 -383
379 -441 361 -11 -4 -41 -27 -67 -51 -25 -25 -48 -45 -50 -45 -2 0 -53 50
-113 111 l-110 111 34 45 c217 284 286 673 182 1028 -118 407 -476 727 -900
805 -114 20 -301 22 -406 4z m370 -213 c213 -47 376 -136 508 -278 75 -81 88
-98 132 -173 240 -409 137 -942 -237 -1227 -389 -296 -924 -254 -1261 99 -176
184 -266 420 -258 676 2 54 5 108 8 122 3 14 8 39 12 55 12 62 48 162 84 230
138 266 390 448 685 498 93 16 250 14 327 -2z m1351 -2309 l258 -258 -72 -73
-72 -73 -258 258 c-142 142 -256 261 -254 264 11 14 131 138 135 139 3 0 121
-115 263 -257z"/>
<path d="M3093 2668 c1 -91 3 -108 16 -108 268 -7 489 -222 517 -502 1 -10 2
-21 3 -25 0 -5 49 -8 107 -8 l106 0 -7 74 c-31 348 -317 636 -664 669 l-79 8
1 -108z"/>
<path d="M428 2863 c-8 -36 0 -253 12 -290 17 -55 66 -123 114 -160 69 -53
115 -64 269 -66 l137 -2 0 107 0 106 -130 4 c-126 3 -130 4 -157 31 -27 27
-28 31 -31 157 l-4 130 -103 0 c-90 0 -103 -2 -107 -17z"/>
</g>
</svg>
